<svg fill="none" height="16" viewBox="0 0 16 16" width="16" xmlns="http://www.w3.org/2000/svg" xmlns:xlink="http://www.w3.org/1999/xlink"><clipPath id="a"><path d="m0 0h16v16h-16z"/></clipPath><g clip-path="url(#a)"><path clip-rule="evenodd" d="m10.7653-.485822c.0757.1653.0231.356649-.1162.4619015-.0043.0076006-.0095.01740899-.0156.02975031-.0316.06477759-.0711.16840419-.1163.31674819-.0897.29416-.1878.715992-.2908 1.244552-.2054 1.05422-.42294 2.49544-.62879 4.10444-.3994 3.12193-.75171 6.85043-.88593 9.55963.03747-.0242.07565-.0484.11442-.0726.35276-.2203.79724-.466 1.2967-.7232.9999-.5148 2.2397-1.0854 3.4498-1.604 1.2098-.5184 2.3972-.9879 3.2928-1.2992.4458-.155.8296-.2744 1.1111-.3401.137-.032.2707-.0564.3824-.06.0526-.0016.1318-.0002.2131.0256.082.026.2432.1058.2912.3051.0493.2042-.0764.4098-.2806.459-.0868.021-.1738.0103-.2489-.0245-.0415.0056-.102.0165-.1843.0357-.2418.0565-.5954.1654-1.0341.3179-.8733.3036-2.0432.7658-3.243 1.28-.3629.1554-.7278.3154-1.0874.4768.5561-.1366 1.1302-.2673 1.697-.388 1.2664-.2696 2.5051-.4905 3.4342-.613.4624-.0609.8591-.099 1.1475-.1046.1406-.0027.2769.0016.3882.0223.0531.0098.1293.0283.2026.07.0734.0418.2046.1451.2222.3355.0193.2092-.1347.3945-.3439.4138-.0993.0092-.1933-.0207-.2666-.077-.0414-.0034-.1027-.0055-.1876-.0038-.2456.0048-.6091.0384-1.063.0982-.9035.1191-2.1216.336-3.3752.6028-.3766.0802-.7557.1647-1.1296.2523.6228-.0349 1.244-.0462 1.8429-.0387 1.3517.0168 2.6138.1291 3.5534.2897.4652.0796.8784.1754 1.191.2879.1522.0548.3185.1267.461.2252.1063.0734.3977.2958.4173.6983.0194.3964-.2863.7335-.6827.7529-.2534.0124-.4826-.1081-.62-.3002-.0171-.007-.0377-.015-.0623-.0239-.1974-.071-.5159-.1498-.9465-.2234-.8518-.1457-2.0374-.2533-3.329-.2694-1.2914-.016-2.6651.0598-3.8973.2717-.7996.1375-1.50947.3273-2.09034.5691.01295.1679-.02439.3137-.07191.4237-.10346.2395-.28913.3964-.42586.4874-.15158.101-.3304.1793-.51732.2233-.18386.0433-.41517.0626-.65646.0007-.25626-.0658-.51682-.2238-.69491-.5051-.11346-.1793-.1725-.3754-.19547-.5721-.60438-.2695-1.36233-.4787-2.2248-.627-1.2322-.2119-2.6059-.2877-3.897228-.2717-1.291639.0161-2.477192.1237-3.329082.2694-.43053.0736-.74908.1524-.94647.2234-.02458.0089-.0452.0169-.06226.0239-.13741.1921-.3666.3126-.62005.3002-.39642-.0194-.70207-.3565-.6827-.7529.01968-.4025.31106-.6249.41731-.6983.14257-.0985.30878-.1704.46098-.2252.31267-.1125.72582-.2083 1.19103-.2879.93961-.1606 2.201753-.2729 3.553378-.2897.598742-.0075 1.219682.0038 1.842252.0386-.37387-.0875-.75289-.172-1.1295-.2522-1.253546-.2668-2.47166-.4837-3.37517-.6028-.45391-.0598-.81739-.0934-1.06297-.0982-.08491-.0017-.14626.0004-.18764.0038-.07334.0563-.16727.0862-.2666.077-.20923-.0193-.36318-.2046-.34385-.4138.01759-.1904.14876-.2937.22219-.3355.07325-.0417.14944-.0602.20253-.07.11135-.0207.2476-.025.3882-.0223.28844.0056.68518.0437 1.14756.1046.929054.1225 2.167752.3434 3.43418.613.56789.1209 1.14313.2519 1.70021.3888-.3602-.1617-.72571-.3219-1.08913-.4776-1.199868-.5142-2.369725-.9764-3.24302-1.28-.43868-.1525-.79232-.2614-1.03416-.3179-.08229-.0192-.14273-.0301-.18423-.0357-.07515.0348-.16214.0455-.2489.0245-.20426-.0492-.32991-.2548-.28064-.459.04805-.1993.20925-.2791.29122-.3051.08129-.0258.16051-.0272.21308-.0256.11173.0036.24539.028.38246.06.28148.0657.66523.1851 1.111025.3401.8956295.3113 2.083015.7808 3.292875 1.2993 1.21008.5185 2.44985 1.0891 3.4497 1.6039.49951.2572.944.5029 1.29676.7232l.004.0025c-.62449-1.3577-1.54763-3.1727-2.44701-4.8376-.65076-1.20471-1.28256-2.31882-1.77008-3.10927-.24489-.39707-.44778-.70328-.59545-.89714-.04591-.06027-.08174-.10331-.10799-.13246-.0618-.01726-.12006-.0504-.16832-.09937-.14749-.14966-.14572-.39055.00395-.53803.1585-.15619.35336-.12375.4445-.08929.08333.03152.14699.08318.184.11589.08104.07163.1662.17327.24917.28219.17103.22453.38973.55658.63778.95877.49838.80806 1.13795 1.93642 1.79192 3.14706.60014 1.11095 1.21794 2.30155 1.75291 3.38525-.20062-1.0349-.41382-2.1639-.60224-3.2347-.21906-1.245-.40624-2.42045-.50106-3.28252-.04706-.42784-.07332-.79493-.06596-1.0591.00351-.12631.01511-.262.05162-.37563.01776-.05525.05273-.14249.12716-.2178.08979-.09083.22318-.14809.37308-.12678.1208.01718.20421.0806.24983.12384.04754.04506.08232.09485.10704.13537.0496.0813.09129.17989.12737.27951.07355.20311.14841.48074.22392.80696.15192.65631.31763 1.55905.48587 2.57148.14961.9003.30224 1.89367.44994 2.88737.17283-2.06361.40813-4.29466.66213-6.28009.20673-1.61585.42669-3.07566.63668-4.1534.10471-.537413.20873-.989297.30984-1.320926.05016-.1645498.10327-.311837.16056-.429035.0286-.058499.06307-.119485.10507-.174354.0385-.050371.1049-.124186.2059-.170507.1911-.087529.4169-.003631.5044.18739z" fill="#000" fill-rule="evenodd"/></g></svg>