<svg xmlns="http://www.w3.org/2000/svg" viewBox="0 0 20 24"><path d="M15.2 11H5c-.5 0-1 .4-1 1 0 .5.4 1 1 1h10.2c.5 0 1-.4 1-1s-.4-1-1-1M15.2 14.6H5c-.5 0-1 .4-1 1 0 .5.4 1 1 1h10.2c.5 0 1-.4 1-1s-.4-1-1-1M13.2 18.2H5c-.5 0-1 .4-1 1 0 .5.4 1 1 1h8.2c.5 0 1-.4 1-1s-.4-1-1-1M12.2 7.4H5c-.5 0-1 .4-1 1 0 .5.4 1 1 1h7.2c.5 0 1-.4 1-1s-.4-1-1-1M10.2 3.8H5c-.5 0-1 .4-1 1 0 .5.4 1 1 1h5.2c.5 0 1-.4 1-1s-.4-1-1-1"/><path d="m19.7 5.7-4.3-4.3L14.3.3c-.2-.2-.4-.3-.7-.3H2C.9 0 0 .9 0 2v20c0 1.1.9 2 2 2h16c1 0 1.8-.7 2-1.6v-16c0-.3-.1-.5-.3-.7M17.8 7c.1 0 .2.1.2.2v14.2c0 .3-.2.5-.5.5H2.2c-.1.1-.2 0-.2-.1V2.5c0-.3.2-.5.5-.5h10.2c.2 0 .3.1.3.2V5c0 1.1.9 2 2 2z"/></svg>