<svg viewBox="0 0 24 24" xmlns="http://www.w3.org/2000/svg"><path d="m23.6 11.3-3.9-2.9c-.4-.3-1-.2-1.2.2-.1.2-.2.3-.2.5v1.3c0 .2-.1.3-.3.3h-4.4c-.2 0-.3-.1-.3-.3v-4.4c0-.2.1-.3.3-.3h1.3c.5 0 .9-.4.9-.9 0-.2 0-.4-.2-.6l-2.9-3.9c-.3-.4-.9-.5-1.3-.1 0 0 0 0-.1.1l-2.9 3.9c-.3.4-.2 1 .2 1.2.2.1.3.2.5.2h1.3c.2 0 .3.1.3.3v4.4c0 .2-.1.3-.3.3h-4.4c-.2 0-.3-.1-.3-.3v-1.3c0-.5-.4-.9-.9-.9-.2 0-.4 0-.5.2l-3.9 3c-.4.3-.5.9-.2 1.2 0 0 .1.1.2.2l3.9 2.9c.4.3 1 .2 1.2-.2.1-.2.2-.3.2-.5v-1.3c0-.2.1-.3.3-.3h4.4c.2 0 .3.1.3.3v4.4c0 .2-.1.3-.3.3h-1.3c-.5 0-.9.4-.9.9 0 .2 0 .4.2.5l2.9 3.9c.3.4.9.5 1.2.2 0 0 .1-.1.2-.2l2.9-3.9c.3-.4.2-1-.2-1.2-.2-.1-.3-.2-.5-.2h-1.3c-.2 0-.3-.1-.3-.3v-4.4c0-.2.1-.3.3-.3h4.4c.2 0 .3.1.3.3v1.3c0 .5.4.9.9.9.2 0 .4 0 .5-.2l3.9-2.9c.4-.3.5-.9.2-1.3 0 0-.1-.1-.2-.2z"/></svg>