<svg xmlns="http://www.w3.org/2000/svg" viewBox="0 0 24 24"><path d="M1.1 6.2c.6-.7 1.4-1.3 2.4-1.4 2.6-.4 4.2.4 5.3 1.9 2 2.3 1.9 5.1.6 7.6-1.3 2.4-4 4.6-7.2 5.1-.4 0-.7-.1-1-.4-.1-.3-.1-.7.3-1.1l1.1-1.1c.3-.4.6-.7.7-1.1s.3-.9 0-1.3c-.1-.4-.6-.7-1-1C1.1 12.6 0 11.2 0 9.3c.1-1.4.4-2.4 1.1-3.1M14.6 6.2c.6-.7 1.6-1.1 2.6-1.4 2.4-.4 4.2.4 5.3 1.9 2 2.3 1.9 5.1.6 7.6-1.3 2.4-4 4.6-7.2 5.1-.4 0-.7-.1-1-.4-.1-.3-.1-.7.3-1.1l1.1-1.1c.3-.4.6-.7.7-1.1s.3-.9 0-1.3c-.1-.4-.6-.7-1-1-1.3-.6-2.4-2-2.4-3.9 0-1.6.4-2.6 1-3.3"/></svg>