<svg xmlns="http://www.w3.org/2000/svg" viewBox="0 0 64 64"><path fill-rule="evenodd" d="M58.7 57.3H5.3C2.4 57.3 0 54.9 0 52V12c0-2.9 2.4-5.3 5.3-5.3h53.3c2.9 0 5.3 2.4 5.3 5.3v40c.1 2.9-2.3 5.3-5.2 5.3m0-7.3V13.3c0-.7-.6-1.3-1.3-1.3H6.7c-.7 0-1.3.6-1.3 1.3V50c0 .3.3.6.6.6.2 0 .4-.1.5-.3l5.9-8.4c.3-.4.8-.7 1.4-.7h1.8l7-10c.3-.4.8-.7 1.4-.7h1.9c.5 0 1.1.3 1.4.7l14.2 20.2c.2.3.5.4.8.4h.7c.6 0 1-.5 1-1 0-.2-.1-.4-.2-.6l-3.5-4.9c-.4-.6-.4-1.4 0-2l3.1-4.1c.3-.4.8-.7 1.3-.7h2.8c.5 0 1 .2 1.3.7l8.4 11.1c.2.3.7.4 1 .1.4 0 .5-.2.5-.4M44 30.7a6.7 6.7 0 1 1 0-13.4 6.7 6.7 0 0 1 0 13.4" clip-rule="evenodd"/></svg>